<svg width="68" height="68" viewBox="0 0 68 68" fill="none" xmlns="http://www.w3.org/2000/svg">
<g filter="url(#filter0_ii_12_317)">
<path fill-rule="evenodd" clip-rule="evenodd" d="M42.9011 5.78451L56.8323 19.7156C56.91 20.3551 56.9501 21.0063 56.9501 21.6667V46.3334C56.9501 55.17 49.7866 62.3334 40.95 62.3334H27.05C18.2135 62.3334 11.05 55.17 11.05 46.3334V21.6668C11.05 12.8302 18.2135 5.66675 27.0501 5.66675H40.9501C41.6105 5.66675 42.2617 5.70677 42.9011 5.78451Z" fill="#FA4E4E"/>
</g>
<path d="M43.203 43.8299C41.2909 43.6879 39.4499 42.9778 37.9628 41.6996C35.0593 42.3385 32.2972 43.2614 29.5354 44.398C27.3402 48.3034 25.2864 50.2917 23.516 50.2917C23.1618 50.2917 22.7371 50.2208 22.4538 50.0076C21.6746 49.6527 21.25 48.8714 21.25 48.0905C21.25 47.4512 21.3917 45.6762 28.1191 42.7645C29.6774 39.9241 30.8809 37.0129 31.8725 33.9596C31.0225 32.2554 29.1816 28.0656 30.4559 25.9356C30.8809 25.1543 31.7309 24.7283 32.6517 24.7994C33.3597 24.7994 34.0676 25.1543 34.4926 25.7224C35.4135 27.0006 35.3426 29.699 34.1385 33.6756C35.2718 35.8028 36.7562 37.7234 38.5291 39.3564C40.0166 39.072 41.5034 38.8592 42.9905 38.8592C46.319 38.93 46.8148 40.4922 46.744 41.4155C46.744 43.8299 44.4068 43.8299 43.203 43.8299ZM23.3746 48.2322L23.5871 48.1613C24.5785 47.8065 25.3573 47.0964 25.9239 46.173C24.8614 46.5991 24.0118 47.3092 23.3746 48.2325V48.2322ZM32.793 26.9298H32.5805C32.5097 26.9298 32.368 26.9298 32.2972 27.0006C32.0138 28.2076 32.2263 29.4858 32.7222 30.6219C33.1472 29.4149 33.1472 28.1368 32.793 26.9298ZM33.2888 37.2261L33.218 37.3678L33.1472 37.2969C32.5097 38.9303 31.8013 40.5634 31.0225 42.1256L31.1642 42.0548V42.1965C32.739 41.6255 34.3472 41.1512 35.9798 40.7763L35.909 40.7054H36.1215C35.059 39.6401 34.0676 38.4331 33.2888 37.2261ZM42.9197 40.9895C42.2822 40.9895 41.7159 40.9895 41.0784 41.1311C41.7867 41.4864 42.495 41.6284 43.203 41.6996C43.6989 41.7704 44.1947 41.6996 44.6193 41.5575C44.6193 41.3443 44.336 40.9895 42.9197 40.9895Z" fill="white"/>
<path d="M55.6209 18.5051L44.1115 18.5051L56.95 31.3437V19.8333L55.6209 18.5051Z" fill="url(#paint0_linear_12_317)"/>
<path d="M56.95 19.8333L42.7833 5.66658C42.7833 13.4906 49.1259 19.8333 56.95 19.8333Z" fill="#FDB8B8"/>
<defs>
<filter id="filter0_ii_12_317" x="11.05" y="4.66675" width="45.9" height="58.6667" filterUnits="userSpaceOnUse" color-interpolation-filters="sRGB">
<feFlood flood-opacity="0" result="BackgroundImageFix"/>
<feBlend mode="normal" in="SourceGraphic" in2="BackgroundImageFix" result="shape"/>
<feColorMatrix in="SourceAlpha" type="matrix" values="0 0 0 0 0 0 0 0 0 0 0 0 0 0 0 0 0 0 127 0" result="hardAlpha"/>
<feOffset dy="-2"/>
<feGaussianBlur stdDeviation="0.5"/>
<feComposite in2="hardAlpha" operator="arithmetic" k2="-1" k3="1"/>
<feColorMatrix type="matrix" values="0 0 0 0 0 0 0 0 0 0 0 0 0 0 0 0 0 0 0.3 0"/>
<feBlend mode="normal" in2="shape" result="effect1_innerShadow_12_317"/>
<feColorMatrix in="SourceAlpha" type="matrix" values="0 0 0 0 0 0 0 0 0 0 0 0 0 0 0 0 0 0 127 0" result="hardAlpha"/>
<feOffset dy="2"/>
<feGaussianBlur stdDeviation="0.5"/>
<feComposite in2="hardAlpha" operator="arithmetic" k2="-1" k3="1"/>
<feColorMatrix type="matrix" values="0 0 0 0 1 0 0 0 0 1 0 0 0 0 1 0 0 0 0.3 0"/>
<feBlend mode="normal" in2="effect1_innerShadow_12_317" result="effect2_innerShadow_12_317"/>
</filter>
<linearGradient id="paint0_linear_12_317" x1="46.9891" y1="15.6275" x2="59.8276" y2="28.4661" gradientUnits="userSpaceOnUse">
<stop stop-opacity="0.2"/>
<stop offset="1" stop-opacity="0"/>
</linearGradient>
</defs>
</svg>
